<?xml version="1.0" standalone="no"?>
<!DOCTYPE svg PUBLIC "-//W3C//DTD SVG 20010904//EN"
 "http://www.w3.org/TR/2001/REC-SVG-20010904/DTD/svg10.dtd">
<svg version="1.0" xmlns="http://www.w3.org/2000/svg"
 width="933.000000pt" height="1280.000000pt" viewBox="0 0 933.000000 1280.000000"
 preserveAspectRatio="xMidYMid meet">
<metadata>
Created by potrace 1.15, written by Peter Selinger 2001-2017
</metadata>
<g transform="translate(0.000000,1280.000000) scale(0.100000,-0.100000)"
fill="#000000" stroke="none">
<path d="M3670 12794 c-308 -39 -581 -173 -795 -388 -192 -193 -310 -411 -367
-679 -28 -135 -31 -369 -5 -501 57 -283 176 -507 376 -706 109 -108 190 -168
324 -240 l76 -41 5 -52 c3 -29 10 -122 16 -207 5 -85 30 -456 55 -825 24 -368
47 -690 50 -716 l5 -45 -73 -12 c-40 -7 -116 -24 -169 -37 -377 -96 -658 -265
-751 -454 l-32 -66 -3 -330 c-2 -181 -5 -331 -7 -333 -2 -3 -309 -61 -770
-147 -71 -14 -166 -29 -210 -35 -180 -25 -274 -69 -374 -176 -37 -39 -81 -98
-98 -131 l-32 -58 -77 -13 c-54 -8 -107 -26 -171 -57 -309 -150 -513 -572
-623 -1287 l-22 -138 40 -72 c22 -40 232 -437 467 -883 235 -445 618 -1170
850 -1610 232 -440 508 -962 612 -1160 257 -488 341 -622 511 -826 237 -283
492 -454 800 -536 88 -24 115 -26 287 -27 174 0 200 2 310 28 127 30 249 71
380 129 44 20 186 74 315 120 276 100 683 247 1265 457 231 83 530 191 665
240 135 49 403 145 595 215 1126 406 1047 373 1290 532 242 159 471 364 587
528 108 153 196 346 213 471 4 29 20 69 40 100 86 132 79 87 87 574 4 239 10
539 13 665 6 256 -2 326 -54 454 -62 152 -209 327 -373 444 -104 73 -281 162
-413 205 -195 65 -360 94 -605 108 l-105 6 -450 415 c-247 229 -711 657 -1030
952 -676 625 -837 778 -847 803 -4 11 -9 99 -11 196 -3 171 -4 179 -31 236
-36 73 -138 182 -225 240 -183 122 -468 222 -773 271 -31 5 -38 10 -38 28 0
50 71 1728 76 1793 l5 71 87 56 c377 243 612 670 612 1111 0 503 -271 957
-710 1190 -192 101 -362 145 -585 150 -82 3 -166 2 -185 0z"/>
</g>
</svg>
